<svg xmlns="http://www.w3.org/2000/svg" viewBox="0 0 320 250">
  <defs>
    <filter id="softShadow" x="-20%" y="-20%" width="140%" height="160%">
      <feDropShadow dx="0" dy="10" stdDeviation="10" flood-color="#4c1d1d" flood-opacity="0.18" />
    </filter>
    <style>
      .outer { fill: #fff1d6; stroke: #5f1d1d; stroke-width: 2.6; }
      .inner { fill: #a72227; stroke: #5f1d1d; stroke-width: 2.2; }
      .line { fill: none; stroke: #efad5b; stroke-width: 2.2; stroke-linecap: round; }
      .label { fill: #fff1d6; stroke: #5f1d1d; stroke-width: 0.8; font: 700 34px Arial, Helvetica, sans-serif; }
      .mark { fill: #fff1d6; stroke: #5f1d1d; stroke-width: 0.7; }
    </style>
  </defs>

  <g filter="url(#softShadow)">
    <g transform="translate(36 68) rotate(-21 58 82)">
      <rect class="outer" x="0" y="0" width="116" height="168" rx="18" />
      <rect class="inner" x="13" y="14" width="90" height="140" rx="13" />
      <path class="line" d="M28 30q10 10 0 20" />
      <path class="line" d="M75 30h18" />
      <path class="line" d="M28 138q10-10 0-20" />
    </g>

    <g transform="translate(82 40) rotate(-9 58 82)">
      <rect class="outer" x="0" y="0" width="116" height="168" rx="18" />
      <rect class="inner" x="13" y="14" width="90" height="140" rx="13" />
      <path class="line" d="M28 30q10 10 0 20" />
      <path class="line" d="M75 30h18" />
      <path class="line" d="M28 138q10-10 0-20" />
    </g>

    <g transform="translate(118 34) rotate(6 58 82)">
      <rect class="outer" x="0" y="0" width="116" height="168" rx="18" />
      <rect class="inner" x="13" y="14" width="90" height="140" rx="13" />
      <path class="line" d="M28 30q10 10 0 20" />
      <path class="line" d="M75 30h18" />
      <path class="line" d="M28 138q10-10 0-20" />
    </g>

    <g transform="translate(156 30) rotate(10 58 82)">
      <rect class="outer" x="0" y="0" width="116" height="168" rx="18" />
      <rect class="inner" x="13" y="14" width="90" height="140" rx="13" />
      <path class="line" d="M28 30q10 10 0 20" />
      <path class="line" d="M75 30h18" />
      <path class="line" d="M28 138q10-10 0-20" />
      <path class="line" d="M30 46v74" />
      <path class="line" d="M86 46v74" />
      <text class="label" x="58" y="92" text-anchor="middle">PP</text>
      <path class="mark" d="M32 85l8 12-8 12-8-12 8-12Z" />
      <path class="mark" d="M86 96c0-6 4-10 8-10 3 0 5 3 5 3s2-3 5-3c4 0 8 4 8 10 0 6-7 13-13 19-6-6-13-13-13-19Z" />
    </g>
  </g>
</svg>
