<svg xmlns="http://www.w3.org/2000/svg" viewBox="0 0 64 64">
  <defs>
    <radialGradient id="chipRed" cx="35%" cy="30%" r="75%">
      <stop offset="0%" stop-color="#ef4a56" />
      <stop offset="55%" stop-color="#bf1524" />
      <stop offset="100%" stop-color="#7d0610" />
    </radialGradient>
    <radialGradient id="chipInner" cx="40%" cy="35%" r="70%">
      <stop offset="0%" stop-color="#ffffff" />
      <stop offset="100%" stop-color="#eef1f6" />
    </radialGradient>
  </defs>

  <circle cx="32" cy="32" r="22.5" fill="#ffffff" />
  <circle cx="32" cy="32" r="21" fill="url(#chipRed)" />
  <circle cx="32" cy="32" r="18.3" fill="none" stroke="#d72533" stroke-width="1.4" />
  <circle cx="32" cy="32" r="14" fill="url(#chipInner)" />
  <circle cx="32" cy="32" r="13" fill="none" stroke="#a10915" stroke-width="1.1" />

  <g fill="#ffffff">
    <rect x="29.7" y="10.3" width="4.6" height="6.1" rx="0.4" />
    <rect x="29.7" y="47.6" width="4.6" height="6.1" rx="0.4" />
    <rect x="10.3" y="29.7" width="6.1" height="4.6" rx="0.4" />
    <rect x="47.6" y="29.7" width="6.1" height="4.6" rx="0.4" />

    <rect x="16.4" y="15.3" width="4.4" height="6" rx="0.4" transform="rotate(-45 18.6 18.3)" />
    <rect x="43.2" y="42.1" width="4.4" height="6" rx="0.4" transform="rotate(-45 45.4 45.1)" />
    <rect x="42.1" y="16.4" width="6" height="4.4" rx="0.4" transform="rotate(-45 45.1 18.6)" />
    <rect x="15.3" y="43.2" width="6" height="4.4" rx="0.4" transform="rotate(-45 18.3 45.4)" />
  </g>

  <text x="20" y="34.5" font-size="5" fill="#303540">♣</text>
  <text
    x="22.2"
    y="35"
    text-anchor="middle"
    font-size="4.6"
    font-family="Arial, Helvetica, sans-serif"
    font-weight="700"
    fill="#c1121f"
  >
    ♦
  </text>
  <text
    x="41.8"
    y="35"
    text-anchor="middle"
    font-size="4.8"
    font-family="Arial, Helvetica, sans-serif"
    font-weight="700"
    fill="#c1121f"
  >
    ♥
  </text>
  <text
    x="32"
    y="37"
    text-anchor="middle"
    font-size="12"
    font-family="Arial, Helvetica, sans-serif"
    font-weight="700"
    fill="#303540"
  >
    PP
  </text>
</svg>
